<svg id="Group_1_copy_2" data-name="Group 1 copy 2" xmlns="http://www.w3.org/2000/svg" width="50" height="50" viewBox="0 0 50 50">
  <defs>
    <style>
      .cls-1 {
        fill: #e75c62;
      }

      .cls-2 {
        fill: #fff;
        fill-rule: evenodd;
      }
    </style>
  </defs>
  <circle class="cls-1" cx="25" cy="25" r="25"/>
  <path class="cls-2" d="M25.849,26.512a14.388,14.388,0,0,0-4.989-7.076c-2.509-1.956-5.417-2.809-8.332-3.952-0.5,4.478-1.231,10.163,1.093,14.278a12.644,12.644,0,0,0,6.093,5.394,12.069,12.069,0,0,0,2.878.812,4.061,4.061,0,0,0,.509.043,33.672,33.672,0,0,0-6.254-12.434,0.588,0.588,0,0,1,.095-0.829,0.6,0.6,0,0,1,.834.094,34.855,34.855,0,0,1,6.5,12.987A2.891,2.891,0,0,0,25.467,35C27.612,32.535,25.868,26.573,25.849,26.512Zm12.1-11.524s-2.158.906-2.346,0.989c-2.689,1.182-6,2.738-7.185,5.53a12.451,12.451,0,0,0-.741,6.5c0.009,0.071.018,0.144,0.026,0.219a3.138,3.138,0,0,0,1.211,2.569c0.035,0.021.072,0.041,0.111,0.061A14.925,14.925,0,0,1,32.8,21.826a0.638,0.638,0,0,1,.871-0.064,0.572,0.572,0,0,1,.067.832,13.757,13.757,0,0,0-3.5,8.479,3.188,3.188,0,0,0,.732-0.161A10.573,10.573,0,0,0,34.9,28.388c0.158-.152.313-0.312,0.461-0.473C38.7,24.279,37.945,14.988,37.945,14.988Z"/>
</svg>
