<svg xmlns="http://www.w3.org/2000/svg" width="500" height="500" viewBox="0 0 500 500">
  <defs>
    <style>
      .cls-1 {
        fill: #1ba3fc;
      }

      .cls-1, .cls-2 {
        fill-rule: evenodd;
      }

      .cls-2 {
        fill: #3ccd8a;
      }
    </style>
  </defs>
  <path class="cls-1" d="M394.184,291.663a203.006,203.006,0,0,0-71.878-34.072s-4.531-118.816-9.993-143H286.554s-23.711,47-34.2,75.169c0,0-25.759-62.921-34.2-75.169h-27s-11.235,85.553-9.683,142.194a199.46,199.46,0,0,0-73.926,34.88A171.083,171.083,0,0,1,78.866,171.417c9.993-70.258,60.146-127.148,119.92-143.686s104.775-5.1,140.093,16.041a184.027,184.027,0,0,1,75.85,92.765C426.212,171.044,433.847,228.431,394.184,291.663ZM207.253,251.381s46.972-7.531,84.982,0c0,0-2.287-80.353-3.832-93.984l-28.8,67.781H239.886l-28.8-67.781S207.253,212.481,207.253,251.381Z"/>
  <path class="cls-2" d="M138.985,325.975S242.9,254.353,377.869,313.223l6.783-7.552a249.87,249.87,0,0,0-135.279-37.142C167.8,269.086,117.829,304.8,117.829,304.8A204.372,204.372,0,0,0,138.985,325.975Zm11.636,11.9a149.824,149.824,0,0,0,23.6,13.439,264.879,264.879,0,0,1,186.332-23.747l6.211-5.155s-34.409-15.893-96.147-15.893A256.025,256.025,0,0,0,150.621,337.871Z"/>
  <path class="cls-1" d="M41.63,406.156q2,3.669,4.617,9.06T51.7,426.889q2.837,6.279,5.618,12.839t5.228,12.339q2.448-5.776,5.228-12.339t5.617-12.839q2.836-6.279,5.451-11.673t4.617-9.06H99.206q1.106,7.671,2.052,17.175t1.664,19.788q0.717,10.282,1.33,20.621t1.054,19.459H88.443q-0.331-11.234-.886-24.462T85.894,432.06q-2.007,4.666-4.452,10.336T76.6,453.734q-2.39,5.673-4.617,10.84T68.2,473.415H56.106q-1.56-3.669-3.783-8.841T47.7,453.734q-2.393-5.666-4.84-11.338T38.413,432.06q-1.11,13.447-1.664,26.677T35.861,483.2H19q0.441-9.12,1.053-19.459t1.332-20.621q0.721-10.284,1.664-19.788T25.1,406.156H41.63Zm79.1,0H138.03V483.2H120.725V406.156ZM207.363,483.2q-7.433-13.233-16.085-26.129a265.228,265.228,0,0,0-18.416-24.344V483.2H155.781V406.156h14.088q3.66,3.669,8.1,9t9.041,11.394q4.6,6.06,9.152,12.563t8.543,12.507V406.156H221.9V483.2H207.363Zm83.83,0q-1.287-4.017-2.762-8.25t-2.938-8.428H255.468q-1.461,4.215-2.921,8.45c-0.976,2.823-1.885,5.572-2.725,8.228H231.85q4.338-12.451,8.234-23.013t7.621-19.9q3.727-9.342,7.347-17.733t7.509-16.4h16.4q3.791,8,7.467,16.4t7.415,17.733q3.732,9.336,7.634,19.9t8.248,23.013H291.193ZM270.4,423.61q-0.579,1.677-1.694,4.565t-2.539,6.674q-1.428,3.791-3.187,8.338t-3.576,9.55h21.979q-1.763-5.016-3.418-9.576t-3.139-8.355q-1.493-3.784-2.612-6.67T270.4,423.61ZM375.29,483.2q-1.281-4.017-2.758-8.25t-2.942-8.428H339.565q-1.454,4.215-2.916,8.45c-0.978,2.823-1.887,5.572-2.728,8.228H315.952q4.335-12.451,8.234-23.013t7.621-19.9q3.725-9.342,7.342-17.733t7.514-16.4h16.4q3.789,8,7.467,16.4t7.411,17.733q3.731,9.336,7.634,19.9t8.247,23.013H375.29ZM354.5,423.61q-0.579,1.677-1.693,4.565t-2.54,6.674q-1.421,3.791-3.186,8.338t-3.577,9.55h21.984q-1.763-5.016-3.418-9.576t-3.144-8.355q-1.485-3.784-2.611-6.67T354.5,423.61Zm97.119-17.454v14.785H428.432V483.2H411.127V420.941H387.942V406.156h63.675Zm11.094,0h17.306V483.2H462.711V406.156Z"/>
</svg>
