<svg xmlns="http://www.w3.org/2000/svg" width="174" height="46" viewBox="0 0 174 46">
  <defs>
    <style>
      .cls-1 {
        fill: #1ba3fc;
      }

      .cls-1, .cls-2 {
        fill-rule: evenodd;
      }

      .cls-2 {
        fill: #3ccd8a;
      }
    </style>
  </defs>
  <path class="cls-1" d="M43.649,37.288a27.9,27.9,0,0,0-9.859-4.649S33.169,16.425,32.42,13.124H28.887S25.635,19.539,24.2,23.382c0,0-3.533-8.586-4.691-10.258H15.8s-1.541,11.675-1.328,19.4a27.42,27.42,0,0,0-10.139,4.76A23.254,23.254,0,0,1,.4,20.879C1.772,11.292,8.651,3.528,16.849,1.272s14.371-.7,19.215,2.189a25.141,25.141,0,0,1,10.4,12.659A24.218,24.218,0,0,1,43.649,37.288Zm-25.639-5.5a39.349,39.349,0,0,1,11.656,0s-0.314-10.965-.526-12.825l-3.95,9.249h-2.7l-3.95-9.249S18.01,26.483,18.01,31.791Z"/>
  <path class="cls-2" d="M8.647,41.97S22.9,32.2,41.411,40.23l0.93-1.031a34.4,34.4,0,0,0-18.554-5.068c-11.189.076-18.042,4.95-18.042,4.95A27.947,27.947,0,0,0,8.647,41.97Zm1.6,1.623a20.576,20.576,0,0,0,3.237,1.834,36.5,36.5,0,0,1,25.557-3.241l0.852-.7S35.169,39.315,26.7,39.315A35.253,35.253,0,0,0,10.243,43.594Z"/>
  <path class="cls-1" d="M60.521,13.8q0.519,0.949,1.2,2.344t1.41,3.02q0.734,1.624,1.454,3.322l1.353,3.192,1.353-3.192q0.719-1.7,1.454-3.322t1.411-3.02q0.676-1.394,1.195-2.344h4.078q0.286,1.985.531,4.444t0.431,5.12q0.186,2.66.344,5.335T77,33.733H72.639q-0.086-2.907-.229-6.329t-0.431-6.9q-0.52,1.208-1.152,2.674T69.573,26.11q-0.619,1.468-1.2,2.8T67.4,31.2h-3.13q-0.4-.949-0.979-2.287t-1.2-2.8q-0.619-1.466-1.253-2.933T59.689,20.5q-0.287,3.479-.431,6.9t-0.23,6.329H54.663q0.114-2.359.272-5.034t0.345-5.335q0.187-2.661.431-5.12T56.243,13.8h4.279ZM81,13.8h4.479V33.733H81V13.8Zm22.427,19.933q-1.924-3.423-4.163-6.76a68.7,68.7,0,0,0-4.767-6.3V33.733H90.07V13.8h3.647q0.947,0.949,2.1,2.33t2.34,2.948q1.192,1.568,2.369,3.25t2.211,3.236V13.8h4.451V33.733h-3.762Zm21.7,0q-0.333-1.039-.715-2.134l-0.76-2.181h-7.773q-0.378,1.091-.756,2.186t-0.7,2.129h-4.652q1.124-3.222,2.131-5.954t1.973-5.148q0.965-2.417,1.9-4.588t1.944-4.242h4.246q0.981,2.07,1.933,4.242t1.919,4.588q0.966,2.415,1.976,5.148t2.135,5.954h-4.8ZM119.74,18.316q-0.15.434-.439,1.181t-0.657,1.727q-0.369.981-.825,2.157t-0.926,2.471h5.69q-0.456-1.3-.885-2.477t-0.812-2.162q-0.387-.979-0.676-1.726T119.74,18.316Zm27.151,15.417q-0.332-1.039-.714-2.134t-0.761-2.181h-7.773q-0.375,1.091-.754,2.186t-0.706,2.129h-4.652q1.122-3.222,2.131-5.954t1.973-5.148q0.964-2.417,1.9-4.588t1.945-4.242h4.246q0.981,2.07,1.933,4.242t1.918,4.588q0.966,2.415,1.976,5.148t2.135,5.954h-4.8Zm-5.382-15.417c-0.1.289-.245,0.683-0.438,1.181s-0.411,1.074-.658,1.727-0.52,1.372-.825,2.157-0.611,1.609-.925,2.471h5.69q-0.456-1.3-.885-2.477t-0.813-2.162q-0.386-.979-0.676-1.726T141.509,18.316Zm25.14-4.516v3.825h-6V33.733h-4.479V17.626h-6V13.8h16.483Zm2.872,0H174V33.733h-4.479V13.8Z"/>
</svg>
