<svg id="Group_1_copy_3" data-name="Group 1 copy 3" xmlns="http://www.w3.org/2000/svg" width="50" height="50" viewBox="0 0 50 50">
  <defs>
    <style>
      .cls-1 {
        fill: #ffb129;
      }

      .cls-2 {
        fill: #fff;
        fill-rule: evenodd;
      }
    </style>
  </defs>
  <circle class="cls-1" cx="25" cy="25" r="25"/>
  <path class="cls-2" d="M31.395,15.88a4.682,4.682,0,0,0-4.669,4.44L25,24.1l-1.726-3.778A4.676,4.676,0,0,0,21.4,16.812l-3.388-3.89a1.029,1.029,0,1,0-1.551,1.352l1.445,1.659a4.677,4.677,0,1,0,4.472,7.38l1.489,3.26L19.5,36.131a1.029,1.029,0,1,0,1.871.856L25,29.048l3.627,7.939a1.029,1.029,0,1,0,1.871-.856l-4.367-9.558,1.49-3.26A4.675,4.675,0,1,0,31.395,15.88Zm-12.79,7.3a2.619,2.619,0,1,1,2.618-2.619A2.622,2.622,0,0,1,18.605,23.177Zm12.79,0a2.619,2.619,0,1,1,2.618-2.619A2.622,2.622,0,0,1,31.395,23.177Z"/>
</svg>
