<svg id="Group_1_copy" data-name="Group 1 copy" xmlns="http://www.w3.org/2000/svg" width="50" height="50" viewBox="0 0 50 50">
  <defs>
    <style>
      .cls-1 {
        fill: #3dcd8b;
      }

      .cls-2 {
        fill: #fff;
        fill-rule: evenodd;
      }
    </style>
  </defs>
  <circle class="cls-1" cx="25" cy="25" r="25"/>
  <path class="cls-2" d="M34.7,14.1a2.446,2.446,0,0,0-3.386,1.856c0.009-.6.007-1.124,0-1.535V13.569a0.108,0.108,0,0,0-.092-0.107,39.972,39.972,0,0,0-12.408,0,0.109,0.109,0,0,0-.092.1c0,0.014-.043,1.066-0.017,2.52A2.446,2.446,0,0,0,15.3,14.1c-1.667.642-1.319,2.966-1.173,3.663a7.492,7.492,0,0,0,2.841,4.131c0.153,0.128.311,0.256,0.484,0.392,0.126,0.1.255,0.192,0.4,0.3a3,3,0,0,1,1.134,1.172,1.141,1.141,0,0,1-.066.979,0.789,0.789,0,0,1-.952.405,0.716,0.716,0,0,1-.567-0.683,0.4,0.4,0,0,0-.024-0.307,0.408,0.408,0,0,0-.749.058A1.43,1.43,0,0,0,17.7,25.9a1.579,1.579,0,0,0,.523.09h0a1.608,1.608,0,0,0,1.414-.87,1.967,1.967,0,0,0,.182-1.432c0.059,0.136.121,0.265,0.185,0.383a11.764,11.764,0,0,0,3.793,3.941,0.372,0.372,0,0,0-.1.258v0.385a0.38,0.38,0,0,0,.381.378H24.2v3.477l-0.628,1.071h-0.7a0.11,0.11,0,0,0-.078.032L21.417,35a0.107,0.107,0,0,0-.031.076V37.24H20.811a0.109,0.109,0,0,0-.109.108v0.539a0.109,0.109,0,0,0,.109.108H29.2a0.109,0.109,0,0,0,.109-0.108V37.348A0.109,0.109,0,0,0,29.2,37.24H28.628V35.057a0.108,0.108,0,0,0-.033-0.078l-1.436-1.371a0.11,0.11,0,0,0-.076-0.03H26.439L25.811,32.5V29.03h0.03a0.38,0.38,0,0,0,.381-0.378V28.267a0.37,0.37,0,0,0-.068-0.214,12.045,12.045,0,0,0,3.858-3.985c0.053-.1.1-0.2,0.152-0.309a1.972,1.972,0,0,0,.2,1.358,1.609,1.609,0,0,0,1.414.87h0A1.578,1.578,0,0,0,32.3,25.9a1.43,1.43,0,0,0,1.069-1.692,0.408,0.408,0,0,0-.749-0.058,0.4,0.4,0,0,0-.024.307,0.716,0.716,0,0,1-.567.683,0.789,0.789,0,0,1-.952-0.405,1.141,1.141,0,0,1-.066-0.979,3,3,0,0,1,1.134-1.172c0.143-.1.272-0.2,0.4-0.3,0.173-.135.331-0.263,0.484-0.392a7.49,7.49,0,0,0,2.841-4.131C36.016,17.066,36.365,14.742,34.7,14.1ZM18.324,21.926c-0.124-.09-0.247-0.179-0.365-0.271-0.17-.133-0.322-0.256-0.463-0.375a8.3,8.3,0,0,1-2.168-2.542,4.164,4.164,0,0,1-.064-2.254,1.422,1.422,0,0,1,1.263-1.2,1.247,1.247,0,0,1,1.219.858,1.218,1.218,0,0,1,.038.259,1.7,1.7,0,0,1-.054.572,1.186,1.186,0,0,1-.652.5,0.4,0.4,0,1,0,.259.764,1.98,1.98,0,0,0,1.2-1.043,2.042,2.042,0,0,0,.181-0.734c0.01,0.395.026,0.813,0.048,1.244a20.487,20.487,0,0,0,.882,5.548A4.05,4.05,0,0,0,18.324,21.926ZM31.3,16.584a2.02,2.02,0,0,0,.17.608,1.98,1.98,0,0,0,1.2,1.043,0.407,0.407,0,0,0,.31-0.021,0.4,0.4,0,0,0-.052-0.742,1.186,1.186,0,0,1-.652-0.5,1.7,1.7,0,0,1-.054-0.572,1.214,1.214,0,0,1,.037-0.259,1.251,1.251,0,0,1,1.219-.858,1.422,1.422,0,0,1,1.263,1.2,4.164,4.164,0,0,1-.064,2.254A8.3,8.3,0,0,1,32.5,21.28c-0.14.118-.292,0.24-0.463,0.375-0.119.094-.244,0.184-0.372,0.277a4.171,4.171,0,0,0-1.274,1.249A24.517,24.517,0,0,0,31.3,16.584Z"/>
</svg>
