<svg xmlns="http://www.w3.org/2000/svg" width="125" height="55" viewBox="0 0 125 55">
  <defs>
    <style>
      .cls-1 {
        fill: #181a39;
        fill-rule: evenodd;
      }
    </style>
  </defs>
  <path id="Jacob_N." data-name="Jacob N." class="cls-1" d="M13.427,23.323a1.068,1.068,0,0,0-.248.708q0.047,0.325,1.063.322a0.934,0.934,0,0,1,1.122.728q0.128,0.873.2,1.93t0.047,2.305q-0.032,1.063-.072,2.136t-0.054,2.113a4.089,4.089,0,0,0,.011.569,1.311,1.311,0,0,1-.013.406q-0.094.781-.178,1.343t-0.17.969A20,20,0,0,1,15,38.965q-0.132,1.16-.319,2.576a18.678,18.678,0,0,1-.5,2.893,1.317,1.317,0,0,1-.608,1.022,0.667,0.667,0,0,1-.515-0.184,2.75,2.75,0,0,1-.575-0.737q-0.187-.285-0.372-0.631a5.659,5.659,0,0,0-.419-0.666,0.815,0.815,0,0,1,.419-0.612,0.827,0.827,0,0,0,.4-0.734,3.089,3.089,0,0,0-.3-0.721q-0.276-.539-0.815-1.391-0.42-.745-0.728-1.217a3.553,3.553,0,0,0-.546-0.686,2.579,2.579,0,0,0-.966-0.438,3.4,3.4,0,0,0-1.259-.023,0.738,0.738,0,0,0-.512.749,7.282,7.282,0,0,0,.086,2.008,4.822,4.822,0,0,0,.207.778q0.165,0.494.475,1.195a9.677,9.677,0,0,0,.583,1.221q0.261,0.439.389,0.606a5.688,5.688,0,0,0,.579,1.48q0.546,1.112,1.622,2.944a1.724,1.724,0,0,0,.833.738,2.216,2.216,0,0,0,1.2.125A4.013,4.013,0,0,0,14.279,49a7.616,7.616,0,0,0,1-.5,4.339,4.339,0,0,0,.944-0.708,1.623,1.623,0,0,0,.425-0.715q0.324-1.332.444-2.075t0.137-.911q0-.394-0.011-0.931,0.2-1.025.338-1.8t0.18-1.322q0.229-1.132.381-2t0.232-1.464L18.2,36.137q0.261-1.053.371-1.723a7.194,7.194,0,0,0,.112-0.939,4.926,4.926,0,0,0-.014-0.734,3.615,3.615,0,0,1-.025-0.525q0.047-.67.088-1.173t0.048-.878q0.066-.258.108-0.472t0.078-.384a14.331,14.331,0,0,0,.365-3.255,26.284,26.284,0,0,0-.3-3.987,7,7,0,0,0-.557-2.095,0.843,0.843,0,0,0-.822-0.605q-0.283.186-.665,0.407a4.552,4.552,0,0,0-.439.323,1.867,1.867,0,0,0-.3.3q-0.346.464-.565,0.806a5.365,5.365,0,0,0-.847.506,1.511,1.511,0,0,0-.516.644A5.707,5.707,0,0,0,13.427,23.323ZM21.869,41.6a2.189,2.189,0,0,1-.187.349q0.242,0.38.446,0.712l0.367,0.6q0.1,0.13.169,0.234a0.525,0.525,0,0,1,.082.206,2.979,2.979,0,0,1,.022.432,3.5,3.5,0,0,0-.559,1.066,2.46,2.46,0,0,0-.081,1.079,2.054,2.054,0,0,0,.682,1.4,1.959,1.959,0,0,0,1.51.266,1.316,1.316,0,0,0,.427-0.2q0.285-.176.679-0.462,0.616-.463,1.1-0.887a8.868,8.868,0,0,0,.843-0.828q0.173-.232.592-0.77t1.022-1.372q0.465-.5.816-0.865l0.585-.6q0.135-.206.241-0.336t0.192-.246a1.1,1.1,0,0,1,.271.365,1.5,1.5,0,0,1,.106.368,3.682,3.682,0,0,0,1.164,2.151,2.687,2.687,0,0,0,2.139.454,3,3,0,0,0,1.1-.4,5.264,5.264,0,0,0,1.075-.872,11.837,11.837,0,0,0,.838-1q0.39-.523.794-1.018a7.85,7.85,0,0,0-.411-0.758q-0.26-.428-0.633-1a1.941,1.941,0,0,1-.259.286,2.4,2.4,0,0,1-.213.176q-0.119.183-.227,0.365t-0.224.385a2.3,2.3,0,0,1-.316.316,0.7,0.7,0,0,1-.34.153,1.174,1.174,0,0,1-1.06-.374,1.853,1.853,0,0,1-.526-1.115q-0.136-.933-0.244-1.954a2.085,2.085,0,0,0-.411-0.966,0.74,0.74,0,0,0-.7-0.24,2.8,2.8,0,0,0-1.423.757,8.65,8.65,0,0,0-1.5,1.909q-0.165.148-.3,0.25l-0.26.2a6.544,6.544,0,0,0-.543.608q-0.379.459-.977,1.189a9.563,9.563,0,0,1-.942,1.07,3.474,3.474,0,0,1-.862.624l-0.169-.162q0.467-.918.758-1.479a6.58,6.58,0,0,1,.412-0.724q0.991-1.16,1.567-1.97a4.772,4.772,0,0,0,.714-1.286,9.011,9.011,0,0,0,.662-0.719q0.245-.3.332-0.422,0.112-.223.277-0.517a9.31,9.31,0,0,0,.958-1.1,9.922,9.922,0,0,0,.659-1.019q0.523-.532.977-0.972a1.379,1.379,0,0,0,.4-0.618,1.769,1.769,0,0,0,.043-0.773,0.8,0.8,0,0,0-.346-0.592,1.172,1.172,0,0,0-.814-0.109,4.74,4.74,0,0,0-2.216,1.215A22.157,22.157,0,0,0,27.3,35.16a6.052,6.052,0,0,1-.66.729q-0.311.284-.516,0.438-0.408.474-.667,0.823a6.616,6.616,0,0,0-.393.575,2.788,2.788,0,0,0-.49.4,1.421,1.421,0,0,0-.31.5,3.568,3.568,0,0,1-.252.545q-0.117.193-.2,0.309l-1.669,1.487Q21.987,41.346,21.869,41.6Zm16.19-1.071a9.62,9.62,0,0,1,.478.863,2.305,2.305,0,0,1-.027.522,2.3,2.3,0,0,0-.024.542,5.963,5.963,0,0,0,.216.984,1.874,1.874,0,0,0,.355.653,2.379,2.379,0,0,0,.528.493,7.091,7.091,0,0,0,.841.509q0.471,0.242,1.139.559a2.056,2.056,0,0,0,.531.088,3.575,3.575,0,0,0,.7-0.04,8.632,8.632,0,0,0,3-.967,6.767,6.767,0,0,0,2.14-1.878,7.3,7.3,0,0,1,.477-0.567,6.8,6.8,0,0,0,1.613-1.3q0.678-.752,1.339-1.47-0.015-.1-1.084-1.748-0.442.521-.747,0.917a5.968,5.968,0,0,0-.469.69,1.371,1.371,0,0,1-.283.259q-0.142.094-.234,0.169-0.642.571-1.3,1.122T45.96,41.987q-0.582.272-1.063,0.456a5.489,5.489,0,0,0-.767.35,8.086,8.086,0,0,1-.924-0.155,2.825,2.825,0,0,1-.6-0.2,1.251,1.251,0,0,1-.5-0.476,2.066,2.066,0,0,1-.259-0.781,4.7,4.7,0,0,1-.046-1.092,3.66,3.66,0,0,1,.19-0.9,3.738,3.738,0,0,1,.429-0.612q0.316-.388.8-0.894,1.061-1.108,1.679-1.769a6.9,6.9,0,0,0,.751-0.887q0.417-.268.828-0.577t0.828-.577a3.232,3.232,0,0,0,.881-0.989,1.739,1.739,0,0,0,.182-1.094L48.2,30.675a0.71,0.71,0,0,0-.272-0.375,0.647,0.647,0,0,0-.48-0.1,4.685,4.685,0,0,0-1.814.846,4.616,4.616,0,0,0-1.43,1.349,9.718,9.718,0,0,0-1.2.89,11.017,11.017,0,0,0-1.227,1.247q-1.049,1.19-2.167,2.472a6.042,6.042,0,0,1-.574.54q-0.305.252-.577,0.52a6.727,6.727,0,0,0-.647.82,1.033,1.033,0,0,0-.207.569l-0.159.189Q37.787,40.093,38.058,40.53ZM50.9,38.623q0.273,0.447.5,0.89a1.734,1.734,0,0,0,.21-0.4,1.677,1.677,0,0,1,.106-0.264q0.627-.672.968-1.033a1.373,1.373,0,0,1,.443-0.376,0.347,0.347,0,0,1,.267.054,0.32,0.32,0,0,1,.125.22,6.352,6.352,0,0,1-.085.976,5.117,5.117,0,0,0-.035,1.321,3.1,3.1,0,0,0,1.251,2.035,2.868,2.868,0,0,0,2.233.669,1.9,1.9,0,0,0,.465-0.151,1.91,1.91,0,0,1,.384-0.139,2.558,2.558,0,0,0,.742-0.243,7.256,7.256,0,0,0,.868-0.51A7.076,7.076,0,0,0,60.8,40.513a6.671,6.671,0,0,0,1.048-1.407,1.558,1.558,0,0,0,.579.558,1.282,1.282,0,0,0,.8.111,2.155,2.155,0,0,0,.8-0.293,3.6,3.6,0,0,0,.8-0.687q0.344-.34.645-0.7l0.618-.733q-0.271-.437-0.534-0.886t-0.531-.865a3.314,3.314,0,0,1-.371.365,0.665,0.665,0,0,1-.32.15,0.343,0.343,0,0,1-.28-0.073,1.016,1.016,0,0,1-.238-0.349,2.472,2.472,0,0,0,.35-0.652,5.7,5.7,0,0,0,.288-1.078,7.146,7.146,0,0,0,.115-1.053,4.893,4.893,0,0,0-.038-0.824A4.286,4.286,0,0,0,63.4,29.48a2.736,2.736,0,0,0-2.354-.578,3.011,3.011,0,0,0-.626.257q-0.484.237-1.326,0.712l-0.148-.165q0.155-.5.29-1a0.4,0.4,0,0,0-.3-0.277,1.651,1.651,0,0,0-.7-0.012,1.76,1.76,0,0,0-.727.272,2.917,2.917,0,0,0-.6.544q-0.243.326-.472,0.67t-0.489.693q-0.211.259-.461,0.534t-0.5.58a4.5,4.5,0,0,0-.474.66,2.636,2.636,0,0,0-.259.566q-0.76.9-1.27,1.522a9.419,9.419,0,0,0-.744,1.01l-1.405,1.3q-0.161.314-.279,0.569a2.346,2.346,0,0,1-.239.418Q50.624,38.176,50.9,38.623Zm9.653-5.991a1.748,1.748,0,0,1,.466.067,0.9,0.9,0,0,1,.389.389A7.91,7.91,0,0,1,61.89,34l-0.2,1.21a6.748,6.748,0,0,1-.1.709,0.857,0.857,0,0,1-.206.434q-0.234.387-.5,0.819a5.5,5.5,0,0,1-1.244,1.767A3.074,3.074,0,0,1,58,39.71a1.2,1.2,0,0,1-.914-0.157,1.169,1.169,0,0,1-.409-0.811,3.519,3.519,0,0,1-.008-0.766,9.882,9.882,0,0,1,.167-1.123,5.385,5.385,0,0,1,.288-1.151,0.694,0.694,0,0,1,.368-0.458,2.1,2.1,0,0,0,.55-0.277,1.76,1.76,0,0,0,.422-0.445q0.285-.6.5-1.109a2.89,2.89,0,0,1,.306-0.532,0.741,0.741,0,0,1,.263-0.256Q60.194,32.612,60.55,32.632Zm5.194,3.852q0.271,0.437.5,0.86l0.173-.233,0.133-.082,0.192,0.034a0.575,0.575,0,0,1,.12.179,1.071,1.071,0,0,1,.07.27,11.9,11.9,0,0,0,.476,1.982A16.511,16.511,0,0,0,68.33,41.7q0.366,0.237.671,0.41a3.182,3.182,0,0,0,.566.259,2.327,2.327,0,0,0,.618.189,1.928,1.928,0,0,0,.528,0,2.732,2.732,0,0,0,1.127-.444,4.327,4.327,0,0,0,1.041-1.033q0.335-.4.606-0.679t0.452-.45q0.4-.68.728-1.184t0.564-.891q0.287-.021.491-0.041c0.136-.013.252-0.027,0.347-0.04a2.427,2.427,0,0,0,1.022-.667A12.05,12.05,0,0,0,78.4,35.568a0.634,0.634,0,0,0-.072-0.207,1.129,1.129,0,0,0-.179-0.233q-0.268-.416-0.491-0.737a4.07,4.07,0,0,1-.343-0.572,1.4,1.4,0,0,1-.224.24,1.24,1.24,0,0,1-.236.159,0.385,0.385,0,0,1-.2-0.24,5.966,5.966,0,0,1,.338-1.231,4.3,4.3,0,0,0,.231-1.961,1.242,1.242,0,0,0-.235-0.619,0.53,0.53,0,0,0-.521-0.162,1.706,1.706,0,0,0-.375.127,1.689,1.689,0,0,1-.375.127,3.491,3.491,0,0,1-.494.02,3.524,3.524,0,0,0-.474.018,2.091,2.091,0,0,0-1.254,1.064,14.3,14.3,0,0,0-1.329,2.816,1.542,1.542,0,0,1-.018.376,1.465,1.465,0,0,0-.029.294q-0.043.276-.078,0.53a2.709,2.709,0,0,1-.107.472,0.881,0.881,0,0,0,.385.576,2.551,2.551,0,0,0,.918.394,2.366,2.366,0,0,1-.625,1.325,2.24,2.24,0,0,1-1.292.593,0.846,0.846,0,0,1-.7-0.24,1.993,1.993,0,0,1-.529-0.928Q69.9,37.1,69.7,36.6t-0.376-1.012L69.062,33.8a2.111,2.111,0,0,1,.116-0.908,7.948,7.948,0,0,1,.559-1.284q0.666-1.4,1.1-2.482t0.68-1.8a1.111,1.111,0,0,0,.153-0.375L71.6,26.489l0.269-.361,0.251-.337q0.043-.131.3-0.832t0.714-1.99q0.371-1.007.58-1.7a4.837,4.837,0,0,0,.228-1.132q0.031-.212.175-1.072t0.429-2.311a18.471,18.471,0,0,0,.245-1.87,7.009,7.009,0,0,0-.035-1.518,3.4,3.4,0,0,0-.54-1.569,0.966,0.966,0,0,0-.951-0.41,2.86,2.86,0,0,0-.726.21,5.17,5.17,0,0,0-.7.372q-0.6.42-1.3,0.874-0.225.3-.394,0.565t-0.322.493A21.766,21.766,0,0,0,68.7,16.643a29.367,29.367,0,0,0-.928,3.5q-0.04.3-.317,1.943t-0.773,4.641q-0.065.549-.111,1.436t-0.02,2.065q0.044,1.155-.005,2.022a10.742,10.742,0,0,1-.169,1.465q-0.445.645-.73,1.1t-0.488.776Q65.472,36.047,65.744,36.485Zm6.382-18.446a1.318,1.318,0,0,1-.135.351l-0.259.639q-0.154.935-.27,1.7t-0.2,1.335q-0.028.233-.2,0.942t-0.572,1.97Q70.073,26.4,69.8,27.166a2.346,2.346,0,0,1-.422.87l-0.067-.177a5.5,5.5,0,0,1,.028-1.372,14.976,14.976,0,0,1,.408-2.029q0.229-.986.477-1.842a15.307,15.307,0,0,1,.539-1.561q0.336-.816.541-1.405a3.787,3.787,0,0,0,.226-1.007,3.78,3.78,0,0,1,.181-0.887,0.389,0.389,0,0,1,.244-0.316,0.339,0.339,0,0,1,.131.116,0.443,0.443,0,0,1,.056.168A0.876,0.876,0,0,1,72.126,18.039Zm18.074,3.6q-0.019,3.278-.061,5.118t-0.084,2.261q-0.066.549-.1,0.957t-0.035.679q0.029,1.053.043,1.859t0,1.305q-0.017.169-.062,0.786t-0.114,1.706q-0.067.963-.079,1.587a6.124,6.124,0,0,0,.029.908,2.106,2.106,0,0,0,.21.726,0.269,0.269,0,0,0,.335.169,1.324,1.324,0,0,0,.381-0.232,0.543,0.543,0,0,0,.137-0.2,0.945,0.945,0,0,0,.6-0.347,1.191,1.191,0,0,0,.192-0.743q0.171-.958.289-1.648t0.192-1.178q0.016-.6.008-1.224l0.268-.723q0.074-.633.113-1.219t0.084-1.131q0.216-1.648.4-3.085t0.318-2.658a8.5,8.5,0,0,0,.285-1.036q0.059-.879.112-1.509A10.073,10.073,0,0,1,93.8,21.71l0.133-.082a10,10,0,0,1,.647.807,5.679,5.679,0,0,1,.481.81q1.075,1.688,1.887,2.916T98.3,28.224q0.155,0.351.278,0.623t0.19,0.449a8.516,8.516,0,0,0,.8,1.365q0.608,0.9,1.615,2.261a16.882,16.882,0,0,0,1.8,2.235,1.734,1.734,0,0,0,1.03.668,9.859,9.859,0,0,0,1.293-.635,7.462,7.462,0,0,0,1.2-.7l0.479-1.106q0.239-1.341.352-2.476a15.7,15.7,0,0,0,.085-2.044,29.29,29.29,0,0,0,.238-3.465q0.03-1.921-.14-4.218-0.094-1.914-.2-3.826t-0.261-3.838q-0.034-1.363-.09-2.173t-0.092-1.054q-0.095-.649-0.121-1.112t-0.018-.692a8.118,8.118,0,0,0,.017-0.873q-0.12-.4-0.234-0.753a6.449,6.449,0,0,0,.087-0.676,0.4,0.4,0,0,0-.109-0.253,0.364,0.364,0,0,0-.286-0.041l-0.162.024a4.4,4.4,0,0,0-.906,1.034,5.084,5.084,0,0,0-.606,1.384q-0.09.386-.19,1.116t-0.169,1.818q-0.087,1.256-.2,2.579,0.069,0.467.305,1.375a14.076,14.076,0,0,1,.3,1.375,4.908,4.908,0,0,1,.047.6c0.006,0.227,0,.5,0,0.819s0,0.6-.01.851a3.181,3.181,0,0,0,.012.579q0.194,2.024.264,3.215a14.991,14.991,0,0,1,.043,1.569q-0.037.586-.094,1.4t-0.1,1.9q-0.06.714-.162,1.288a4.983,4.983,0,0,0-.068.735,3.587,3.587,0,0,0,.027.535,2.23,2.23,0,0,1,.017.754,0.312,0.312,0,0,1-.259.276,1.559,1.559,0,0,1-.854-0.746,27.785,27.785,0,0,1-1.616-2.417q-0.974-1.557-1.908-3.276T98.092,21.1q-0.927-1.668-1.813-3.2-0.641-1.129-1-1.9a4.639,4.639,0,0,1-.42-1.172,1.7,1.7,0,0,1,.07-0.725,6.774,6.774,0,0,1,.355-0.912,6.25,6.25,0,0,1,.071-0.653q0.063-.423.2-1.065,0.12-.6.173-0.947a2.035,2.035,0,0,0,.038-0.451A0.648,0.648,0,0,0,95.67,9.81a0.471,0.471,0,0,0-.222-0.154q-0.261-.065-0.614-0.18a1.456,1.456,0,0,0-.487.361,3.875,3.875,0,0,0-.431.6q-0.246.451-.423,0.725a2.307,2.307,0,0,1-.3.4,1.62,1.62,0,0,1-.474-0.262,0.858,0.858,0,0,0-.529-0.213,2.981,2.981,0,0,0-.526.16,2.957,2.957,0,0,1-.547.163,1.727,1.727,0,0,0-.76.266,0.877,0.877,0,0,0-.353.5q-0.042.421-.1,0.854t-0.123.857l0.518,1.271q-0.022,3.257-.091,6.48h0Zm26.5,10.128a3.914,3.914,0,0,0-.652-0.993,2.669,2.669,0,0,0-.95-0.752,1.848,1.848,0,0,0-1.025-.14,0.893,0.893,0,0,0-.513.251,0.981,0.981,0,0,0-.253.607c-0.025.211-.049,0.422-0.074,0.633s-0.054.43-.09,0.656l0.28,0.5-0.122.163a4.122,4.122,0,0,0,1.189,1.609,1.955,1.955,0,0,0,1.506.381,0.541,0.541,0,0,0,.374-0.21,1.177,1.177,0,0,0,.187-0.494,1.872,1.872,0,0,0,.382-0.574,1.087,1.087,0,0,0,.072-0.57A3.993,3.993,0,0,0,116.7,31.764Z"/>
</svg>
